<?xml version="1.0" encoding="UTF-8" standalone="no"?>
<svg
   xmlns:dc="http://purl.org/dc/elements/1.1/"
   xmlns:cc="http://creativecommons.org/ns#"
   xmlns:rdf="http://www.w3.org/1999/02/22-rdf-syntax-ns#"
   xmlns:svg="http://www.w3.org/2000/svg"
   xmlns="http://www.w3.org/2000/svg"
   xmlns:sodipodi="http://sodipodi.sourceforge.net/DTD/sodipodi-0.dtd"
   xmlns:inkscape="http://www.inkscape.org/namespaces/inkscape"
   width="100"
   height="100"
   viewBox="0 0 100 100"
   version="1.1"
   id="svg20"
   sodipodi:docname="Amazon.svg"
   inkscape:version="0.92.3 (2405546, 2018-03-11)">
  <metadata
     id="metadata24">
    <rdf:RDF>
      <cc:Work
         rdf:about="">
        <dc:format>image/svg+xml</dc:format>
        <dc:type
           rdf:resource="http://purl.org/dc/dcmitype/StillImage" />
        <dc:title>Amazon.de-Logo_1</dc:title>
      </cc:Work>
    </rdf:RDF>
  </metadata>
  <sodipodi:namedview
     pagecolor="#ffffff"
     bordercolor="#666666"
     borderopacity="1"
     objecttolerance="10"
     gridtolerance="10"
     guidetolerance="10"
     inkscape:pageopacity="0"
     inkscape:pageshadow="2"
     inkscape:window-width="1920"
     inkscape:window-height="1017"
     id="namedview22"
     showgrid="false"
     inkscape:zoom="5.6568543"
     inkscape:cx="17.650998"
     inkscape:cy="40.695077"
     inkscape:window-x="-8"
     inkscape:window-y="-8"
     inkscape:window-maximized="1"
     inkscape:current-layer="layer1" />
  <!-- Generator: Sketch 3.6.1 (26313) - http://www.bohemiancoding.com/sketch -->
  <title
     id="title2">Amazon.de-Logo_1</title>
  <desc
     id="desc4">Created with Sketch.</desc>
  <defs
     id="defs6" />
  <g
     inkscape:groupmode="layer"
     id="layer1"
     inkscape:label="Layer 1">
    <ellipse
       style="opacity:1;fill:#ffffff;stroke-width:92.46427155"
       id="path28"
       cx="49.996883"
       cy="49.996696"
       rx="49.998928"
       ry="49.997475" />
    <g
       id="Page-1"
       style="fill:none;fill-rule:evenodd;stroke:none;stroke-width:1"
       transform="matrix(0.1134375,0,0,0.1134375,4.6391193,37.287386)">
      <g
         id="Amazon.de-Logo_1">
        <g
           id="g476"
           transform="translate(12,8)">
          <path
             d="m 360.04,169.353 c -33.677,24.854 -82.498,38.066 -124.524,38.066 -58.912,0 -111.963,-21.782 -152.119,-58.041 -3.152,-2.836 -0.349,-6.732 3.453,-4.515 43.309,25.203 96.882,40.378 152.198,40.378 37.321,0 78.349,-7.746 116.098,-23.761 5.702,-2.408 10.47,3.755 4.894,7.873"
             id="path484"
             inkscape:connector-curvature="0"
             style="fill:#f6891e" />
          <path
             d="m 374.053,153.354 c -4.309,-5.513 -28.466,-2.614 -39.333,-1.315 -3.279,0.396 -3.785,-2.471 -0.823,-4.562 19.278,-13.528 50.849,-9.615 54.524,-5.085 3.706,4.562 -0.967,36.228 -19.025,51.34 -2.788,2.329 -5.433,1.093 -4.198,-1.98 4.071,-10.154 13.164,-32.885 8.855,-38.398"
             id="path488"
             inkscape:connector-curvature="0"
             style="fill:#f6891e" />
          <path
             d="M 335.497,51.845 V 38.697 c 0,-2.012 1.52,-3.343 3.326,-3.343 h 58.96 c 1.901,0 3.405,1.363 3.405,3.327 V 49.96 c -0.015,1.885 -1.615,4.356 -4.435,8.284 l -30.541,43.594 c 11.326,-0.269 23.318,1.426 33.63,7.224 2.313,1.298 2.946,3.247 3.121,5.132 v 14.035 c 0,1.948 -2.107,4.182 -4.341,3.01 -18.153,-9.505 -42.231,-10.55 -62.286,0.126 -2.059,1.078 -4.198,-1.124 -4.198,-3.057 V 114.97 c 0,-2.138 0.032,-5.798 2.186,-9.045 l 35.389,-50.77 h -30.811 c -1.885,0 -3.389,-1.346 -3.405,-3.31"
             id="path492"
             inkscape:connector-curvature="0"
             style="fill:#231f20" />
          <path
             d="m 120.426,134.006 h -17.931 c -1.711,-0.111 -3.074,-1.394 -3.216,-3.026 l 0.016,-92.066 c 0,-1.838 1.552,-3.311 3.453,-3.311 h 16.712 c 1.743,0.079 3.152,1.41 3.263,3.089 v 12.007 h 0.333 c 4.356,-11.611 12.562,-17.044 23.603,-17.044 11.231,0 18.264,5.433 23.286,17.044 4.34,-11.611 14.225,-17.044 24.775,-17.044 7.54,0 15.745,3.104 20.767,10.074 5.687,7.747 4.515,18.993 4.515,28.862 l -0.016,58.104 c 0,1.838 -1.553,3.311 -3.454,3.311 h -17.916 c -1.805,-0.111 -3.215,-1.537 -3.215,-3.295 L 195.385,81.89 c 0,-3.865 0.333,-13.56 -0.491,-17.235 -1.347,-6.194 -5.37,-7.936 -10.55,-7.936 -4.356,0 -8.887,2.899 -10.724,7.556 -1.838,4.641 -1.679,12.387 -1.679,17.615 v 48.805 c 0,1.838 -1.537,3.311 -3.454,3.311 h -17.916 c -1.79,-0.111 -3.215,-1.537 -3.215,-3.295 L 147.34,81.89 c 0,-10.265 1.663,-25.377 -11.057,-25.377 -12.894,0 -12.388,14.732 -12.388,25.377 l -0.015,48.805 c 0,1.838 -1.537,3.311 -3.454,3.311"
             id="path496"
             inkscape:connector-curvature="0"
             style="fill:#231f20" />
          <path
             d="m 452.11,52.45 c -13.227,0 -14.066,18.011 -14.066,29.258 0,11.231 -0.159,35.245 13.892,35.245 13.908,0 14.573,-19.357 14.573,-31.19 0,-7.746 -0.332,-17.045 -2.677,-24.395 -2.011,-6.4 -6.035,-8.918 -11.722,-8.918 m -0.174,-18.787 c 26.628,0 41.028,22.858 41.028,51.91 0,28.101 -15.905,50.374 -41.028,50.374 -26.122,0 -40.347,-22.859 -40.347,-51.34 0,-28.672 14.4,-50.944 40.347,-50.944"
             id="path500"
             inkscape:connector-curvature="0"
             style="fill:#231f20" />
          <path
             d="M 527.489,134.006 H 509.62 c -1.806,-0.111 -3.216,-1.537 -3.216,-3.295 l -0.031,-92.098 c 0.142,-1.695 1.631,-3.01 3.437,-3.01 h 16.649 c 1.568,0.079 2.851,1.141 3.184,2.566 v 14.083 h 0.333 c 5.021,-12.594 12.054,-18.597 24.442,-18.597 8.047,0 15.904,2.914 20.941,10.851 4.673,7.366 4.673,19.769 4.673,28.671 v 57.93 c -0.19,1.632 -1.663,2.899 -3.421,2.899 h -17.995 c -1.648,-0.111 -2.994,-1.331 -3.184,-2.899 V 81.129 c 0,-10.074 1.172,-24.806 -11.231,-24.806 -4.341,0 -8.364,2.915 -10.376,7.366 -2.503,5.607 -2.836,11.231 -2.836,17.44 v 49.566 c -0.047,1.838 -1.584,3.311 -3.5,3.311"
             id="path504"
             inkscape:connector-curvature="0"
             style="fill:#231f20" />
          <path
             d="m 71.437,133.778 c -1.188,1.061 -2.899,1.14 -4.245,0.412 -5.956,-4.943 -7.018,-7.239 -10.281,-11.944 -9.837,10.027 -16.807,13.037 -29.559,13.037 -15.112,0 -26.85,-9.315 -26.85,-27.959 0,-14.558 7.889,-24.458 19.12,-29.321 9.742,-4.262 23.333,-5.038 33.725,-6.21 v -2.329 c 0,-4.277 0.348,-9.314 -2.17,-13.005 -2.186,-3.311 -6.384,-4.657 -10.075,-4.657 -6.843,0 -12.926,3.501 -14.415,10.772 -0.317,1.615 -1.489,3.215 -3.121,3.294 L 6.189,63.983 C 4.716,63.651 3.084,62.479 3.512,60.229 7.504,39.145 26.56,32.777 43.621,32.777 c 8.728,0 20.133,2.329 27.024,8.918 8.712,8.158 7.873,19.025 7.873,30.874 v 27.943 c 0,8.412 3.501,12.103 6.78,16.633 1.14,1.632 1.394,3.564 -0.064,4.752 -3.659,3.073 -10.169,8.729 -13.749,11.928 z M 53.347,90.041 c 0,6.986 0.174,12.816 -3.342,19.025 -2.852,5.053 -7.382,8.158 -12.42,8.158 -6.89,0 -10.914,-5.243 -10.914,-13.005 0,-15.286 13.702,-18.058 26.676,-18.058 z"
             id="path508"
             inkscape:connector-curvature="0"
             style="fill:#231f20" />
          <path
             d="m 306.578,133.778 c -1.188,1.061 -2.899,1.14 -4.246,0.412 -5.956,-4.943 -7.017,-7.239 -10.28,-11.944 -9.837,10.027 -16.807,13.037 -29.559,13.037 -15.112,0 -26.85,-9.315 -26.85,-27.959 0,-14.558 7.888,-24.458 19.12,-29.321 9.742,-4.262 23.333,-5.038 33.725,-6.21 v -2.329 c 0,-4.277 0.348,-9.314 -2.171,-13.005 -2.186,-3.311 -6.383,-4.657 -10.074,-4.657 -6.844,0 -12.926,3.501 -14.415,10.772 -0.317,1.615 -1.49,3.215 -3.121,3.294 L 241.33,63.983 c -1.474,-0.332 -3.105,-1.504 -2.678,-3.754 3.992,-21.084 23.033,-27.452 40.109,-27.452 8.729,0 20.134,2.329 27.009,8.918 8.728,8.158 7.889,19.025 7.889,30.874 v 27.943 c 0,8.412 3.5,12.103 6.779,16.633 1.141,1.632 1.394,3.564 -0.063,4.752 -3.659,3.073 -10.17,8.729 -13.75,11.928 z m -18.09,-43.737 c 0,6.986 0.174,12.816 -3.343,19.025 -2.867,5.053 -7.382,8.158 -12.419,8.158 -6.891,0 -10.914,-5.243 -10.914,-13.005 0,-15.286 13.702,-18.058 26.676,-18.058 z"
             id="path512"
             inkscape:connector-curvature="0"
             style="fill:#231f20" />
          <path
             d="m 591.283,126.702 c 0,-4.626 3.96,-8.38 8.823,-8.38 4.879,0 8.839,3.754 8.839,8.38 0,4.625 -3.96,8.38 -8.839,8.38 -4.863,0 -8.823,-3.755 -8.823,-8.38 M 714.096,74.586 h 45.146 c 0.159,-16.047 -7.413,-29.654 -21.955,-30.145 -13.797,0.507 -22.7,14.858 -23.191,30.145 M 671.785,91.314 V 75.568 c 0,-6.812 -0.823,-13.813 -4.34,-19.659 -4.023,-6.748 -11.168,-10.787 -18.248,-11.072 -7.05,0.332 -12.958,5.481 -16.522,12.435 -3.85,7.777 -5.022,16.728 -5.022,25.678 0,15.904 3.58,39.76 21.116,40.457 7.239,-0.317 13.797,-5.085 18.011,-11.849 4.007,-6.431 5.005,-12.847 5.005,-20.244 m 65.486,-58.548 c 26.454,0 37.781,23.92 37.923,50.247 0.016,1.505 -1.552,2.835 -3.041,2.835 l -58.722,0.016 c 0,7.794 0.333,14.986 3.517,22.383 3.896,9.077 12.387,14.653 21.004,14.97 9.758,-0.333 17.077,-6.511 20.989,-16.332 0.587,-1.457 2.424,-2.376 3.85,-2.123 l 7.873,1.648 c 1.663,0.396 2.74,1.964 2.312,3.406 -5.591,16.442 -18.723,26.248 -36.085,26.248 -26.723,0 -39.729,-23.73 -39.729,-51.356 0,-27.246 13.909,-51.942 40.109,-51.942 m -53.969,101.349 h -7.24 c -1.536,0.016 -3.088,-1.346 -3.104,-2.835 v -12.071 c -5.418,10.819 -13.528,16.855 -26.138,16.855 -12.498,0 -20.545,-6.226 -26.723,-16.728 -5.861,-10.122 -8.031,-22.573 -8.031,-34.628 0,-24.712 9.869,-51.942 35.879,-51.942 11.279,0 18.059,5.069 23.84,13.544 V 3.508 c 0.016,-1.505 1.569,-2.851 3.089,-2.851 h 8.412 c 1.536,0 3.089,1.346 3.105,2.851 v 127.788 c -0.016,1.489 -1.537,2.819 -3.089,2.819"
             id="path516"
             inkscape:connector-curvature="0"
             style="fill:#231f20" />
        </g>
      </g>
    </g>
  </g>
  <g
     inkscape:groupmode="layer"
     id="layer2"
     inkscape:label="Layer 2" />
</svg>
