<?xml version="1.0" encoding="UTF-8" standalone="no"?>
<!-- Generator: Adobe Illustrator 19.0.0, SVG Export Plug-In . SVG Version: 6.00 Build 0)  -->

<svg
   xmlns:dc="http://purl.org/dc/elements/1.1/"
   xmlns:cc="http://creativecommons.org/ns#"
   xmlns:rdf="http://www.w3.org/1999/02/22-rdf-syntax-ns#"
   xmlns:svg="http://www.w3.org/2000/svg"
   xmlns="http://www.w3.org/2000/svg"
   xmlns:sodipodi="http://sodipodi.sourceforge.net/DTD/sodipodi-0.dtd"
   xmlns:inkscape="http://www.inkscape.org/namespaces/inkscape"
   version="1.1"
   id="Layer_1"
   x="0px"
   y="0px"
   viewBox="0 0 58.593164 58.593164"
   xml:space="preserve"
   width="100"
   height="100"
   sodipodi:docname="E-Mail.svg"
   inkscape:version="0.92.3 (2405546, 2018-03-11)"><metadata
   id="metadata43"><rdf:RDF><cc:Work
       rdf:about=""><dc:format>image/svg+xml</dc:format><dc:type
         rdf:resource="http://purl.org/dc/dcmitype/StillImage" /><dc:title></dc:title></cc:Work></rdf:RDF></metadata><defs
   id="defs41" /><sodipodi:namedview
   pagecolor="#ffffff"
   bordercolor="#666666"
   borderopacity="1"
   objecttolerance="10"
   gridtolerance="10"
   guidetolerance="10"
   inkscape:pageopacity="0"
   inkscape:pageshadow="2"
   inkscape:window-width="1920"
   inkscape:window-height="1017"
   id="namedview39"
   showgrid="false"
   inkscape:zoom="256"
   inkscape:cx="49.090739"
   inkscape:cy="99.570573"
   inkscape:window-x="-8"
   inkscape:window-y="-8"
   inkscape:window-maximized="1"
   inkscape:current-layer="layer2" />

<g
   id="g8"
   transform="matrix(0.19530504,0,0,0.19530504,8.0469496e-4,0.00223411)">
</g>
<g
   id="g10"
   transform="matrix(0.19530504,0,0,0.19530504,8.0469496e-4,0.00223411)">
</g>
<g
   id="g12"
   transform="matrix(0.19530504,0,0,0.19530504,8.0469496e-4,0.00223411)">
</g>
<g
   id="g14"
   transform="matrix(0.19530504,0,0,0.19530504,8.0469496e-4,0.00223411)">
</g>
<g
   id="g16"
   transform="matrix(0.19530504,0,0,0.19530504,8.0469496e-4,0.00223411)">
</g>
<g
   id="g18"
   transform="matrix(0.19530504,0,0,0.19530504,8.0469496e-4,0.00223411)">
</g>
<g
   id="g20"
   transform="matrix(0.19530504,0,0,0.19530504,8.0469496e-4,0.00223411)">
</g>
<g
   id="g22"
   transform="matrix(0.19530504,0,0,0.19530504,8.0469496e-4,0.00223411)">
</g>
<g
   id="g24"
   transform="matrix(0.19530504,0,0,0.19530504,8.0469496e-4,0.00223411)">
</g>
<g
   id="g26"
   transform="matrix(0.19530504,0,0,0.19530504,8.0469496e-4,0.00223411)">
</g>
<g
   id="g28"
   transform="matrix(0.19530504,0,0,0.19530504,8.0469496e-4,0.00223411)">
</g>
<g
   id="g30"
   transform="matrix(0.19530504,0,0,0.19530504,8.0469496e-4,0.00223411)">
</g>
<g
   id="g32"
   transform="matrix(0.19530504,0,0,0.19530504,8.0469496e-4,0.00223411)">
</g>
<g
   id="g34"
   transform="matrix(0.19530504,0,0,0.19530504,8.0469496e-4,0.00223411)">
</g>
<g
   id="g36"
   transform="matrix(0.19530504,0,0,0.19530504,8.0469496e-4,0.00223411)">
</g>
<g
   inkscape:groupmode="layer"
   id="layer1"
   inkscape:label="Layer 1"><ellipse
     style="opacity:1;fill:#ffffff;stroke-width:19.6405983"
     id="path3773"
     cx="29.298441"
     cy="29.294577"
     rx="29.297726"
     ry="29.295437" /></g><g
   inkscape:groupmode="layer"
   id="layer2"
   inkscape:label="Layer 2"><g
     id="g6"
     transform="matrix(0.19530504,0,0,0.19530504,1.6646418,-2.1431991)"><g
       id="g4"><path
         d="m 141.48968,10.969503 c -82.838997,0 -149.9949973,67.158 -149.9949973,149.996997 0,82.837 67.1560003,150 149.9949973,150 82.839,0 150,-67.163 150,-150 0,-82.838997 -67.161,-149.996997 -150,-149.996997 z m 0.003,52.686 88.763,55.349997 H 52.729683 Z m 89.869,143.736997 h -0.009 c 0,8.878 -7.195,16.072 -16.072,16.072 H 67.704683 c -8.878,0 -16.072,-7.195 -16.072,-16.072 v -84.865 c 0,-0.939 0.096,-1.852 0.252,-2.749 l 84.807997,52.883 c 0.104,0.065 0.215,0.109 0.322,0.169 0.112,0.062 0.226,0.122 0.34,0.179 0.599,0.309 1.216,0.558 1.847,0.721 0.065,0.018 0.13,0.026 0.195,0.041 0.692,0.163 1.393,0.265 2.093,0.265 h 0.005 c 0.005,0 0.01,0 0.01,0 0.7,0 1.401,-0.099 2.093,-0.265 0.065,-0.016 0.13,-0.023 0.195,-0.041 0.63,-0.163 1.245,-0.412 1.847,-0.721 0.114,-0.057 0.228,-0.117 0.34,-0.179 0.106,-0.06 0.218,-0.104 0.322,-0.169 l 84.808,-52.883 c 0.156,0.897 0.252,1.808 0.252,2.749 z"
         id="path2"
         inkscape:connector-curvature="0"
         style="fill:#008cff" /></g></g></g></svg>