<?xml version="1.0" encoding="UTF-8" standalone="no"?>
<svg
   xmlns:dc="http://purl.org/dc/elements/1.1/"
   xmlns:cc="http://creativecommons.org/ns#"
   xmlns:rdf="http://www.w3.org/1999/02/22-rdf-syntax-ns#"
   xmlns:svg="http://www.w3.org/2000/svg"
   xmlns="http://www.w3.org/2000/svg"
   xmlns:sodipodi="http://sodipodi.sourceforge.net/DTD/sodipodi-0.dtd"
   xmlns:inkscape="http://www.inkscape.org/namespaces/inkscape"
   enable-background="new 0 0 512 512"
   id="Layer_1"
   version="1.1"
   viewBox="0 0 100 100"
   xml:space="preserve"
   sodipodi:docname="Instagram.svg"
   width="100"
   height="100"
   inkscape:version="0.92.3 (2405546, 2018-03-11)"><metadata
     id="metadata280"><rdf:RDF><cc:Work
         rdf:about=""><dc:format>image/svg+xml</dc:format><dc:type
           rdf:resource="http://purl.org/dc/dcmitype/StillImage" /><dc:title></dc:title></cc:Work></rdf:RDF></metadata><defs
     id="defs278" /><sodipodi:namedview
     pagecolor="#ffffff"
     bordercolor="#666666"
     borderopacity="1"
     objecttolerance="10"
     gridtolerance="10"
     guidetolerance="10"
     inkscape:pageopacity="0"
     inkscape:pageshadow="2"
     inkscape:window-width="1920"
     inkscape:window-height="1017"
     id="namedview276"
     showgrid="false"
     inkscape:zoom="2"
     inkscape:cx="41.737803"
     inkscape:cy="71.602811"
     inkscape:window-x="-8"
     inkscape:window-y="-8"
     inkscape:window-maximized="1"
     inkscape:current-layer="Layer_1" /><g
     id="g273"
     transform="matrix(0.19531248,0,0,0.19531248,0,8.4375196e-6)"><g
       id="Background_1_"><radialGradient
         cx="51.992401"
         cy="13.5086"
         gradientTransform="matrix(0.05660332,-1.08,0.918,0.04811314,-5.988,520.5566)"
         gradientUnits="userSpaceOnUse"
         id="SVGID_1_"
         r="684.44489"><stop
           offset="0"
           style="stop-color:#FED576"
           id="stop252" /><stop
           offset="0.2634"
           style="stop-color:#F47133"
           id="stop254" /><stop
           offset="0.6091"
           style="stop-color:#BC3081"
           id="stop256" /><stop
           offset="1"
           style="stop-color:#4C63D2"
           id="stop258" /></radialGradient><path
         d="m 0,249.5 v 13.8 C 3.6,395.7 110.2,502 237.1,512 h 39 C 403.7,501.9 508.5,394.7 512,263.1 V 249.5 C 508.5,115.6 400.1,7 269.4,0.3 128.8,-6.8 3.9,106 0,249.5 Z"
         id="path261"
         inkscape:connector-curvature="0"
         style="fill:url(#SVGID_1_)" /></g><g
       id="Symbol"><g
         id="g270"><path
           d="m 257.2,128.6 c 40.8,0 45.6,0.1 61.8,0.9 14.9,0.6 22.9,3.2 28.3,5.3 7.1,2.8 12.2,6.2 17.5,11.6 5.3,5.4 8.7,10.6 11.5,17.8 2.1,5.5 4.5,13.7 5.3,28.9 0.8,16.4 0.9,21.3 0.9,62.8 0,41.5 -0.1,46.4 -0.9,62.8 -0.6,15.1 -3.1,23.4 -5.3,28.9 -2.8,7.2 -6.1,12.4 -11.5,17.8 -5.3,5.4 -10.4,8.8 -17.5,11.6 -5.4,2.2 -13.5,4.7 -28.3,5.3 -16.1,0.8 -21,0.9 -61.8,0.9 -40.8,0 -45.6,-0.1 -61.8,-0.9 -14.9,-0.6 -22.9,-3.2 -28.3,-5.3 -7.1,-2.8 -12.2,-6.2 -17.5,-11.6 -5.3,-5.4 -8.7,-10.6 -11.5,-17.8 -2.1,-5.5 -4.5,-13.7 -5.3,-28.9 -0.8,-16.4 -0.9,-21.3 -0.9,-62.8 0,-41.5 0.1,-46.4 0.9,-62.8 0.6,-15.1 3.1,-23.4 5.3,-28.9 2.8,-7.2 6.1,-12.4 11.5,-17.8 5.3,-5.4 10.4,-8.8 17.5,-11.6 5.4,-2.2 13.5,-4.7 28.3,-5.3 16.1,-0.7 21,-0.9 61.8,-0.9 m 0,-28 c -41.5,0 -46.7,0.2 -62.9,1 -16.2,0.8 -27.4,3.4 -37.1,7.2 -10.1,4 -18.6,9.3 -27,18 -8.5,8.7 -13.7,17.3 -17.6,27.6 -3.8,9.8 -6.4,21.2 -7.1,37.7 -0.8,16.5 -0.9,21.8 -0.9,64 0,42.2 0.2,47.5 0.9,64 0.8,16.5 3.4,27.8 7.1,37.7 3.9,10.2 9.1,18.9 17.6,27.6 8.5,8.7 17,14 27,18 9.7,3.9 20.9,6.5 37.1,7.2 16.3,0.8 21.5,1 62.9,1 41.4,0 46.7,-0.2 62.9,-1 16.2,-0.8 27.4,-3.4 37.1,-7.2 10.1,-4 18.6,-9.3 27,-18 8.5,-8.7 13.7,-17.3 17.6,-27.6 3.8,-9.8 6.4,-21.2 7.1,-37.7 0.8,-16.5 0.9,-21.8 0.9,-64 0,-42.2 -0.2,-47.5 -0.9,-64 -0.8,-16.5 -3.4,-27.8 -7.1,-37.7 -3.9,-10.2 -9.1,-18.9 -17.6,-27.6 -8.5,-8.7 -17,-14 -27,-18 -9.7,-3.9 -20.9,-6.5 -37.1,-7.2 -16.2,-0.8 -21.5,-1 -62.9,-1 z"
           id="path264"
           inkscape:connector-curvature="0"
           style="fill:#ffffff" /><path
           d="m 257.2,176.2 c -43.4,0 -78.4,35.7 -78.4,79.8 0,44.1 35.1,79.8 78.4,79.8 43.3,0 78.4,-35.7 78.4,-79.8 0,-44.1 -35.1,-79.8 -78.4,-79.8 z m 0,131.6 c -28.1,0 -50.9,-23.1 -50.9,-51.8 0,-28.7 22.8,-51.8 50.9,-51.8 28.1,0 50.9,23.1 50.9,51.8 0,28.7 -22.8,51.8 -50.9,51.8 z"
           id="path266"
           inkscape:connector-curvature="0"
           style="fill:#ffffff" /><ellipse
           cx="338.70001"
           cy="173"
           rx="18.299999"
           ry="18.6"
           id="ellipse268"
           style="fill:#ffffff" /></g></g></g></svg>