<?xml version="1.0" encoding="UTF-8" standalone="no"?>
<!-- Generator: Adobe Illustrator 18.0.0, SVG Export Plug-In . SVG Version: 6.00 Build 0)  -->

<svg
   xmlns:dc="http://purl.org/dc/elements/1.1/"
   xmlns:cc="http://creativecommons.org/ns#"
   xmlns:rdf="http://www.w3.org/1999/02/22-rdf-syntax-ns#"
   xmlns:svg="http://www.w3.org/2000/svg"
   xmlns="http://www.w3.org/2000/svg"
   xmlns:sodipodi="http://sodipodi.sourceforge.net/DTD/sodipodi-0.dtd"
   xmlns:inkscape="http://www.inkscape.org/namespaces/inkscape"
   version="1.1"
   id="Capa_1"
   x="0px"
   y="0px"
   viewBox="0 0 100 100"
   xml:space="preserve"
   sodipodi:docname="SoundCloud.svg"
   width="100"
   height="100"
   inkscape:version="0.92.3 (2405546, 2018-03-11)"><metadata
   id="metadata370"><rdf:RDF><cc:Work
       rdf:about=""><dc:format>image/svg+xml</dc:format><dc:type
         rdf:resource="http://purl.org/dc/dcmitype/StillImage" /><dc:title></dc:title></cc:Work></rdf:RDF></metadata><defs
   id="defs368" /><sodipodi:namedview
   pagecolor="#ffffff"
   bordercolor="#666666"
   borderopacity="1"
   objecttolerance="10"
   gridtolerance="10"
   guidetolerance="10"
   inkscape:pageopacity="0"
   inkscape:pageshadow="2"
   inkscape:window-width="1920"
   inkscape:window-height="1017"
   id="namedview366"
   showgrid="false"
   inkscape:zoom="2.8284271"
   inkscape:cx="-54.847913"
   inkscape:cy="13.977109"
   inkscape:window-x="-8"
   inkscape:window-y="-8"
   inkscape:window-maximized="1"
   inkscape:current-layer="Capa_1" />
<g
   id="g333"
   transform="matrix(0.89124768,0,0,0.89124768,0,0.00557666)">
	<circle
   style="fill:#ff6000"
   cx="56.098"
   cy="56.098"
   r="56.098"
   id="circle327" />
	<g
   id="g331">
		<path
   style="fill:#f1f2f2"
   d="m 16.707,68.833 c -0.027,0.182 -0.157,0.312 -0.326,0.312 -0.169,0 -0.299,-0.13 -0.325,-0.316 l -0.593,-4.438 0.593,-4.512 c 0.025,-0.188 0.155,-0.318 0.325,-0.318 0.168,0 0.298,0.13 0.326,0.318 l 0.706,4.517 z m 3.021,2.696 c -0.028,0.193 -0.168,0.328 -0.341,0.328 -0.168,0 -0.315,-0.135 -0.338,-0.328 l -0.798,-7.139 0.798,-7.299 c 0.024,-0.188 0.17,-0.328 0.338,-0.328 0.173,0 0.313,0.137 0.341,0.328 l 0.908,7.299 z m 3.26,1.209 c -0.023,0.232 -0.197,0.397 -0.406,0.397 -0.216,0 -0.387,-0.165 -0.408,-0.397 l -0.757,-8.342 0.757,-8.659 c 0.019,-0.235 0.192,-0.403 0.408,-0.403 0.209,0 0.382,0.168 0.406,0.403 l 0.859,8.659 z m 3.292,0.265 c -0.024,0.266 -0.232,0.467 -0.479,0.467 -0.253,0 -0.46,-0.201 -0.481,-0.467 l -0.715,-8.607 0.715,-8.897 c 0.021,-0.268 0.228,-0.469 0.481,-0.469 0.247,0 0.455,0.201 0.479,0.469 l 0.811,8.897 z m 3.31,0.069 c -0.017,0.309 -0.258,0.538 -0.543,0.538 -0.294,0 -0.527,-0.229 -0.547,-0.538 L 27.824,64.395 28.5,56.141 c 0.021,-0.307 0.253,-0.536 0.547,-0.536 0.29,0 0.526,0.229 0.543,0.532 l 0.766,8.258 z m 3.342,0.005 v -0.005 c -0.02,0.342 -0.291,0.612 -0.617,0.612 -0.327,0 -0.598,-0.271 -0.617,-0.607 L 31.067,64.4 31.698,50.971 c 0.019,-0.342 0.29,-0.612 0.617,-0.612 0.327,0 0.598,0.271 0.617,0.607 L 33.647,64.4 Z m 3.317,-0.005 v -0.005 c -0.02,0.378 -0.319,0.679 -0.689,0.679 -0.363,0 -0.663,-0.301 -0.681,-0.679 l -0.596,-8.621 0.596,-16.501 c 0.018,-0.378 0.318,-0.677 0.681,-0.677 0.37,0 0.669,0.299 0.689,0.677 l 0.671,16.501 z m 3.441,-0.133 v -0.005 c -0.015,0.421 -0.346,0.748 -0.753,0.748 -0.407,0 -0.738,-0.327 -0.753,-0.743 l -0.553,-8.533 c 0,0 0.553,-17.876 0.553,-17.881 0.016,-0.416 0.346,-0.749 0.753,-0.749 0.407,0 0.739,0.333 0.753,0.749 l 0.625,17.881 z m 3.421,-0.057 c -0.016,0.458 -0.375,0.817 -0.822,0.817 -0.448,0 -0.807,-0.359 -0.823,-0.813 L 40.95,64.404 41.466,45.926 c 0.016,-0.46 0.375,-0.818 0.823,-0.818 0.447,0 0.807,0.358 0.822,0.818 l 0.573,18.478 z m 3.443,-0.075 v -0.005 c -0.016,0.495 -0.403,0.888 -0.894,0.888 -0.484,0 -0.879,-0.393 -0.888,-0.883 L 44.298,64.406 44.767,46.4 c 0.014,-0.502 0.408,-0.89 0.893,-0.89 0.491,0 0.878,0.388 0.894,0.89 l 0.532,18.006 z m 3.471,-0.05 V 72.75 c -0.008,0.539 -0.434,0.954 -0.96,0.954 -0.53,0 -0.95,-0.415 -0.966,-0.947 L 47.671,64.405 48.1,47.058 c 0.016,-0.538 0.436,-0.959 0.966,-0.959 0.526,0 0.952,0.421 0.96,0.959 l 0.485,17.352 z m 3.541,-0.881 -0.043,0.818 c -0.005,0.285 -0.125,0.543 -0.308,0.729 -0.188,0.183 -0.446,0.3 -0.719,0.3 -0.318,0 -0.598,-0.146 -0.79,-0.376 -0.142,-0.167 -0.23,-0.383 -0.24,-0.61 -0.003,-0.01 -0.003,-0.023 -0.003,-0.037 0,0 -0.395,-8.286 -0.395,-8.3 l 0.39,-20.443 0.005,-0.196 c 0.003,-0.358 0.193,-0.677 0.477,-0.86 0.159,-0.106 0.347,-0.168 0.557,-0.168 0.206,0 0.401,0.064 0.564,0.177 0.277,0.185 0.458,0.496 0.463,0.852 l 0.434,20.648 z m 3.441,0.711 v -0.01 c -0.007,0.604 -0.502,1.096 -1.1,1.096 -0.6,0 -1.094,-0.492 -1.1,-1.091 l -0.227,-4.03 -0.223,-4.138 0.45,-22.406 v -0.113 c 10e-4,-0.34 0.161,-0.644 0.408,-0.849 0.189,-0.155 0.432,-0.249 0.692,-0.249 0.207,0 0.399,0.057 0.563,0.153 0.313,0.196 0.532,0.543 0.542,0.94 l 0.487,22.523 z m 29.733,1.108 c 0,0 -27.683,0 -27.712,0 -0.598,-0.061 -1.071,-0.537 -1.081,-1.15 V 40.821 c 0.01,-0.584 0.211,-0.885 0.963,-1.174 1.941,-0.752 4.139,-1.196 6.398,-1.196 9.215,0 16.766,7.069 17.567,16.074 1.186,-0.495 2.496,-0.777 3.865,-0.777 5.518,0 9.992,4.476 9.992,9.998 0,5.521 -4.474,9.949 -9.992,9.949 z"
   id="path329"
   inkscape:connector-curvature="0" />
	</g>
</g>
<g
   id="g335"
   transform="matrix(0.89124768,0,0,0.89124768,0,0.00557666)">
</g>
<g
   id="g337"
   transform="matrix(0.89124768,0,0,0.89124768,0,0.00557666)">
</g>
<g
   id="g339"
   transform="matrix(0.89124768,0,0,0.89124768,0,0.00557666)">
</g>
<g
   id="g341"
   transform="matrix(0.89124768,0,0,0.89124768,0,0.00557666)">
</g>
<g
   id="g343"
   transform="matrix(0.89124768,0,0,0.89124768,0,0.00557666)">
</g>
<g
   id="g345"
   transform="matrix(0.89124768,0,0,0.89124768,0,0.00557666)">
</g>
<g
   id="g347"
   transform="matrix(0.89124768,0,0,0.89124768,0,0.00557666)">
</g>
<g
   id="g349"
   transform="matrix(0.89124768,0,0,0.89124768,0,0.00557666)">
</g>
<g
   id="g351"
   transform="matrix(0.89124768,0,0,0.89124768,0,0.00557666)">
</g>
<g
   id="g353"
   transform="matrix(0.89124768,0,0,0.89124768,0,0.00557666)">
</g>
<g
   id="g355"
   transform="matrix(0.89124768,0,0,0.89124768,0,0.00557666)">
</g>
<g
   id="g357"
   transform="matrix(0.89124768,0,0,0.89124768,0,0.00557666)">
</g>
<g
   id="g359"
   transform="matrix(0.89124768,0,0,0.89124768,0,0.00557666)">
</g>
<g
   id="g361"
   transform="matrix(0.89124768,0,0,0.89124768,0,0.00557666)">
</g>
<g
   id="g363"
   transform="matrix(0.89124768,0,0,0.89124768,0,0.00557666)">
</g>
</svg>