<?xml version="1.0" encoding="UTF-8" standalone="no"?>
<!-- Generator: Adobe Illustrator 19.0.0, SVG Export Plug-In . SVG Version: 6.00 Build 0)  -->

<svg
   xmlns:dc="http://purl.org/dc/elements/1.1/"
   xmlns:cc="http://creativecommons.org/ns#"
   xmlns:rdf="http://www.w3.org/1999/02/22-rdf-syntax-ns#"
   xmlns:svg="http://www.w3.org/2000/svg"
   xmlns="http://www.w3.org/2000/svg"
   xmlns:sodipodi="http://sodipodi.sourceforge.net/DTD/sodipodi-0.dtd"
   xmlns:inkscape="http://www.inkscape.org/namespaces/inkscape"
   version="1.1"
   id="Capa_1"
   x="0px"
   y="0px"
   viewBox="0 0 100 100"
   xml:space="preserve"
   sodipodi:docname="Xbox.svg"
   width="100"
   height="100"
   inkscape:version="0.92.3 (2405546, 2018-03-11)"><metadata
   id="metadata626"><rdf:RDF><cc:Work
       rdf:about=""><dc:format>image/svg+xml</dc:format><dc:type
         rdf:resource="http://purl.org/dc/dcmitype/StillImage" /><dc:title></dc:title></cc:Work></rdf:RDF></metadata><defs
   id="defs624" /><sodipodi:namedview
   pagecolor="#ffffff"
   bordercolor="#666666"
   borderopacity="1"
   objecttolerance="10"
   gridtolerance="10"
   guidetolerance="10"
   inkscape:pageopacity="0"
   inkscape:pageshadow="2"
   inkscape:window-width="1920"
   inkscape:window-height="1017"
   id="namedview622"
   showgrid="false"
   inkscape:zoom="2"
   inkscape:cx="-8.8520785"
   inkscape:cy="100.36895"
   inkscape:window-x="-8"
   inkscape:window-y="-8"
   inkscape:window-maximized="1"
   inkscape:current-layer="Capa_1" />
<circle
   style="fill:#36930f;stroke-width:0.19530319"
   cx="49.997616"
   cy="50.002384"
   r="49.997616"
   id="circle581" />
<path
   style="fill:#2a7507;stroke-width:0.19530319"
   d="m 77.453533,23.3892 c 1.96e-4,1.95e-4 5.86e-4,1.95e-4 9.77e-4,3.9e-4 -0.308579,-0.320491 -0.624385,-0.633758 -0.9439,-0.943314 l -0.155267,-0.155266 -0.0027,0.0027 C 69.5086,15.735659 60.225058,11.70343 49.997616,11.70343 c -10.7864,0 -20.524802,4.483183 -27.456894,11.68616 0.0013,-5.86e-4 0.0029,-0.0012 0.0043,-0.0015 l -0.02832,0.02832 c -5.85e-4,-1.95e-4 -9.75e-4,-3.91e-4 -0.0015,-5.85e-4 -0.01055,0.01112 -0.02071,0.02246 -0.03145,0.03339 l -0.01621,0.01622 5.86e-4,5.85e-4 c -6.549098,6.84264 -10.5741,16.121299 -10.5741,26.341124 0,11.03385 4.691767,20.970289 12.186723,27.928747 l 22.121606,22.121555 c 1.25287,0.09413 2.518435,0.142574 3.795327,0.142574 27.612941,0 49.997616,-22.384677 49.997616,-49.997618 0,-1.43294 -0.06366,-2.851036 -0.181828,-4.253509 z"
   id="path583"
   inkscape:connector-curvature="0" />
<g
   id="g589"
   transform="matrix(0.19530318,0,0,0.19530318,0,0.00476824)">
	<path
   style="fill:#ffffff"
   d="m 396.716,119.869 c -33.561,13.105 -65.269,32.708 -93.371,53.322 23.929,22.297 41.728,44.237 58.023,74.102 22.625,42.432 38.452,96.8 35.448,142.593 -8.609,-9.475 -74.528,-99.469 -89.101,-117.971 -22.146,-27.579 -40.412,-47.165 -51.716,-57.948 -9.262,8.836 -30.957,32.098 -51.716,57.948 -43.915,55.756 -73.888,101.227 -89.101,117.971 -2.631,-40.193 11.075,-101.617 40.461,-151.237 18.348,-30.367 34.257,-47.977 53.01,-65.458 -28.078,-20.6 -62.509,-41.28 -93.37,-53.322 C 81.606,154.93 60.9,202.545 60.9,255 c 0,107.751 87.349,195.1 195.1,195.1 107.751,0 195.1,-87.349 195.1,-195.1 0,-52.455 -20.706,-100.07 -54.384,-135.131 z"
   id="path585"
   inkscape:connector-curvature="0" />
	<path
   style="fill:#ffffff"
   d="M 256,139.166 C 312.252,108.684 367.396,107.791 396.586,119.736 361.092,82.854 311.229,59.9 256,59.9 c -55.229,0 -105.092,22.955 -140.586,59.836 42.158,-17.252 100.555,-2.269 140.586,19.43 z"
   id="path587"
   inkscape:connector-curvature="0" />
</g>
<g
   id="g591"
   transform="matrix(0.19530318,0,0,0.19530318,0,0.00476824)">
</g>
<g
   id="g593"
   transform="matrix(0.19530318,0,0,0.19530318,0,0.00476824)">
</g>
<g
   id="g595"
   transform="matrix(0.19530318,0,0,0.19530318,0,0.00476824)">
</g>
<g
   id="g597"
   transform="matrix(0.19530318,0,0,0.19530318,0,0.00476824)">
</g>
<g
   id="g599"
   transform="matrix(0.19530318,0,0,0.19530318,0,0.00476824)">
</g>
<g
   id="g601"
   transform="matrix(0.19530318,0,0,0.19530318,0,0.00476824)">
</g>
<g
   id="g603"
   transform="matrix(0.19530318,0,0,0.19530318,0,0.00476824)">
</g>
<g
   id="g605"
   transform="matrix(0.19530318,0,0,0.19530318,0,0.00476824)">
</g>
<g
   id="g607"
   transform="matrix(0.19530318,0,0,0.19530318,0,0.00476824)">
</g>
<g
   id="g609"
   transform="matrix(0.19530318,0,0,0.19530318,0,0.00476824)">
</g>
<g
   id="g611"
   transform="matrix(0.19530318,0,0,0.19530318,0,0.00476824)">
</g>
<g
   id="g613"
   transform="matrix(0.19530318,0,0,0.19530318,0,0.00476824)">
</g>
<g
   id="g615"
   transform="matrix(0.19530318,0,0,0.19530318,0,0.00476824)">
</g>
<g
   id="g617"
   transform="matrix(0.19530318,0,0,0.19530318,0,0.00476824)">
</g>
<g
   id="g619"
   transform="matrix(0.19530318,0,0,0.19530318,0,0.00476824)">
</g>
</svg>