<?xml version="1.0" encoding="UTF-8" standalone="no"?>
<!-- Generator: Adobe Illustrator 19.0.0, SVG Export Plug-In . SVG Version: 6.00 Build 0)  -->

<svg
   xmlns:dc="http://purl.org/dc/elements/1.1/"
   xmlns:cc="http://creativecommons.org/ns#"
   xmlns:rdf="http://www.w3.org/1999/02/22-rdf-syntax-ns#"
   xmlns:svg="http://www.w3.org/2000/svg"
   xmlns="http://www.w3.org/2000/svg"
   xmlns:sodipodi="http://sodipodi.sourceforge.net/DTD/sodipodi-0.dtd"
   xmlns:inkscape="http://www.inkscape.org/namespaces/inkscape"
   version="1.1"
   id="Layer_1"
   x="0px"
   y="0px"
   viewBox="0 0 100 100"
   xml:space="preserve"
   sodipodi:docname="YouTube.svg"
   width="100"
   height="100"
   inkscape:version="0.92.3 (2405546, 2018-03-11)"><metadata
   id="metadata716"><rdf:RDF><cc:Work
       rdf:about=""><dc:format>image/svg+xml</dc:format><dc:type
         rdf:resource="http://purl.org/dc/dcmitype/StillImage" /><dc:title></dc:title></cc:Work></rdf:RDF></metadata><defs
   id="defs714" /><sodipodi:namedview
   pagecolor="#ffffff"
   bordercolor="#666666"
   borderopacity="1"
   objecttolerance="10"
   gridtolerance="10"
   guidetolerance="10"
   inkscape:pageopacity="0"
   inkscape:pageshadow="2"
   inkscape:window-width="1920"
   inkscape:window-height="1017"
   id="namedview712"
   showgrid="false"
   inkscape:pagecheckerboard="true"
   inkscape:zoom="2.8284271"
   inkscape:cx="-50.199571"
   inkscape:cy="41.278022"
   inkscape:window-x="-8"
   inkscape:window-y="-8"
   inkscape:window-maximized="1"
   inkscape:current-layer="Layer_1" />
<circle
   style="fill:#d42428;stroke-width:0.21099676"
   cx="49.999058"
   cy="50.001949"
   r="49.999058"
   id="circle673" />
<path
   style="fill:#cc202d;stroke-width:0.21099676"
   d="m 85.351985,14.641847 c 19.525855,19.527538 19.527535,51.186335 0,70.713874 -19.525851,19.525849 -51.186335,19.526689 -70.713874,0 z"
   id="path675"
   inkscape:connector-curvature="0" />
<path
   style="fill:#ba202e;stroke-width:0.21099676"
   d="M 98.992922,60.015855 74.246803,35.270577 45.061311,38.593565 27.407423,65.924397 60.395077,98.911206 C 79.7899,94.808376 95.03758,79.466802 98.992922,60.015855 Z"
   id="path677"
   inkscape:connector-curvature="0" />
<path
   style="fill:#ffffff;stroke-width:0.21099676"
   d="m 76.163709,40.353489 c 0,-4.191451 -3.395571,-7.588709 -7.5847,-7.588709 H 32.993985 c -4.188286,0 -7.583223,3.398102 -7.583223,7.588709 V 60.70286 c 0,4.191451 3.39557,7.588709 7.583223,7.588709 h 35.584391 c 4.189973,0 7.5847,-3.398102 7.5847,-7.588709 V 40.353489 Z M 45.710337,59.112788 V 39.999859 l 14.494422,9.556886 z"
   id="path679"
   inkscape:connector-curvature="0" />
<g
   id="g681"
   transform="matrix(0.21099675,0,0,0.21099675,0,0.00289192)">
</g>
<g
   id="g683"
   transform="matrix(0.21099675,0,0,0.21099675,0,0.00289192)">
</g>
<g
   id="g685"
   transform="matrix(0.21099675,0,0,0.21099675,0,0.00289192)">
</g>
<g
   id="g687"
   transform="matrix(0.21099675,0,0,0.21099675,0,0.00289192)">
</g>
<g
   id="g689"
   transform="matrix(0.21099675,0,0,0.21099675,0,0.00289192)">
</g>
<g
   id="g691"
   transform="matrix(0.21099675,0,0,0.21099675,0,0.00289192)">
</g>
<g
   id="g693"
   transform="matrix(0.21099675,0,0,0.21099675,0,0.00289192)">
</g>
<g
   id="g695"
   transform="matrix(0.21099675,0,0,0.21099675,0,0.00289192)">
</g>
<g
   id="g697"
   transform="matrix(0.21099675,0,0,0.21099675,0,0.00289192)">
</g>
<g
   id="g699"
   transform="matrix(0.21099675,0,0,0.21099675,0,0.00289192)">
</g>
<g
   id="g701"
   transform="matrix(0.21099675,0,0,0.21099675,0,0.00289192)">
</g>
<g
   id="g703"
   transform="matrix(0.21099675,0,0,0.21099675,0,0.00289192)">
</g>
<g
   id="g705"
   transform="matrix(0.21099675,0,0,0.21099675,0,0.00289192)">
</g>
<g
   id="g707"
   transform="matrix(0.21099675,0,0,0.21099675,0,0.00289192)">
</g>
<g
   id="g709"
   transform="matrix(0.21099675,0,0,0.21099675,0,0.00289192)">
</g>
</svg>